<?xml version="1.0" encoding="utf-8"?>
<!-- Generator: Adobe Illustrator 24.0.1, SVG Export Plug-In . SVG Version: 6.00 Build 0)  -->
<svg version="1.1" id="Calque_1" xmlns="http://www.w3.org/2000/svg" xmlns:xlink="http://www.w3.org/1999/xlink" x="0px" y="0px"
	 viewBox="0 0 642 292" style="enable-background:new 0 0 642 292;" xml:space="preserve">
<style type="text/css">
	.st0{fill:#FFFFFF;}
	.st1{fill:#FF5959;}
</style>
<path class="st0" d="M335.22,227.23l-0.84-2l-19.07-45.45l-7.75-18.45l-28.39-67.66h-1.42l-28.18,67.15l-7.74,18.45l-19.29,45.96
	l-0.84,2h22.13v-0.01h65.95v0.01H335.22z M252.13,207.3l8.92-22.02l7.7-18.99l8.76-21.62l8.6,22.04l7.5,19.21l8.34,21.38H252.13z"/>
<path class="st0" d="M170.29,115.34L84.65,234.9L0.2,115.34h-0.24V292.3h22.3V184.36l61.92,86.35h0.47l63.1-89.43V292.3h22.78
	V115.34H170.29z"/>
<path class="st0" d="M464.21,223.27c9.64-4.58,16.8-11.3,21.46-20.16c4.67-8.85,7-18.58,7-29.18c0-11.23-2.61-20.83-7.83-28.82
	c-5.21-7.98-12.41-14.03-21.58-18.15c-9.18-4.11-19.62-6.17-31.32-6.17h-45.78V292.3h23.01v-63.1h25.38c2.53,0,4.43-0.08,5.7-0.24
	l40.32,63.34h26.81L464.21,223.27z M434.08,206.9h-24.91v-64.05h26.57c7.59,0,13.88,1.62,18.86,4.86
	c4.98,3.24,8.62,7.32,10.91,12.22s3.44,9.88,3.44,14.94c0,8.38-2.73,15.82-8.18,22.3C455.31,203.66,446.41,206.9,434.08,206.9z"/>
<path class="st0" d="M636.31,220.3c-4.03-6.56-9.1-11.7-15.18-15.42c-6.09-3.71-13.57-7.15-22.42-10.32
	c-11.86-4.43-20.99-8.9-27.4-13.4c-6.41-4.51-9.61-10.32-9.61-17.44c0-7.27,2.73-13.01,8.19-17.2c5.45-4.19,12.84-6.28,22.18-6.28
	c6.16,0,12.73,1.03,19.69,3.08c6.95,2.06,13.52,4.74,19.69,8.07l8.77-17.8c-15.81-9.17-32.97-13.75-51.47-13.75
	c-15.03,0.47-27.25,4.86-36.66,13.16c-9.41,8.3-14.11,19.18-14.11,32.62c0,9.17,2.29,16.8,6.88,22.89
	c4.58,6.09,10.08,10.88,16.49,14.35c6.4,3.48,14.43,7.04,24.08,10.68c10.43,4.11,18.54,8.5,24.31,13.16
	c5.77,4.67,8.66,10.96,8.66,18.86c0,9.34-3.44,16.37-10.32,21.12c-6.88,4.74-14.91,7.11-24.08,7.11c-7.12,0-14.79-1.54-23.01-4.62
	c-8.22-3.09-15.26-6.84-21.11-11.27l-10.2,18.27c7.43,5.21,16.05,9.53,25.85,12.92c9.81,3.4,20.01,5.1,30.61,5.1
	c11.38,0,21.31-2.13,29.77-6.4c8.46-4.27,14.98-10.12,19.57-17.55c4.58-7.44,6.88-15.74,6.88-24.91
	C642.36,235.21,640.34,226.86,636.31,220.3z"/>
<polygon class="st0" points="361.81,292.3 336.73,292.3 318.27,247.15 318.27,247.15 343.35,247.15 343.35,247.15 "/>
<polygon class="st0" points="194.43,292.3 219.51,292.3 237.97,247.15 237.97,247.15 212.88,247.15 212.88,247.15 "/>
<g>
	<path class="st1" d="M372.54,93.67c0,19.3-5.89,37.32-15.96,52.21c-6.36,9.42-14.39,17.61-23.68,24.15l-7.98-19.02
		c9.49-7.56,17.06-17.46,21.85-28.79c3.71-8.77,5.76-18.39,5.77-28.55c-0.01-15.23-4.62-29.29-12.53-41.01
		c-7.91-11.72-19.13-21.03-32.29-26.59c-8.77-3.71-18.39-5.76-28.55-5.77c-15.23,0.01-29.29,4.62-41.01,12.53
		c-11.72,7.91-21.03,19.13-26.59,32.29c-3.71,8.77-5.76,18.39-5.77,28.55c0.01,15.23,4.62,29.29,12.53,41.01
		c3.91,5.8,8.71,11.13,14.09,15.59l-7.97,19.03c-13.67-9.92-24.63-23.51-31.3-39.28c-4.73-11.18-7.35-23.49-7.35-36.35
		c0-19.3,5.89-37.32,15.96-52.21c10.06-14.9,24.3-26.72,41.06-33.81C254,2.92,266.31,0.3,279.17,0.3c19.3,0,37.32,5.89,52.21,15.96
		c14.9,10.06,26.72,24.3,33.82,41.06C369.92,68.51,372.54,80.82,372.54,93.67z"/>
</g>
</svg>
