<?xml version="1.0" encoding="utf-8"?>
<!-- Generator: Adobe Illustrator 24.0.1, SVG Export Plug-In . SVG Version: 6.00 Build 0)  -->
<svg version="1.1" id="Calque_1" xmlns="http://www.w3.org/2000/svg" xmlns:xlink="http://www.w3.org/1999/xlink" x="0px" y="0px"
	 viewBox="0 0 187 227" style="enable-background:new 0 0 187 227;" xml:space="preserve">
<style type="text/css">
	.st0{fill:#101010;}
	.st1{fill:#FF5959;}
</style>
<path class="st0" d="M149.22,227.23l-0.84-2l-19.07-45.45l-7.75-18.45L93.17,93.67h-1.42l-28.18,67.15l-7.74,18.45l-19.29,45.96
	l-0.84,2h22.13v-0.01h65.95v0.01H149.22z M66.13,207.3l8.92-22.02l7.7-18.99l8.76-21.62l8.6,22.04l7.5,19.21l8.34,21.38H66.13z"/>
<g>
	<path class="st1" d="M186.54,93.67c0,19.3-5.89,37.32-15.96,52.21c-6.36,9.42-14.39,17.61-23.68,24.15l-7.98-19.02
		c9.49-7.56,17.06-17.46,21.85-28.79c3.71-8.77,5.76-18.39,5.77-28.55c-0.01-15.23-4.62-29.29-12.53-41.01
		c-7.91-11.72-19.13-21.03-32.29-26.59c-8.77-3.71-18.39-5.76-28.55-5.77c-15.23,0.01-29.29,4.62-41.01,12.53
		c-11.72,7.91-21.03,19.13-26.59,32.29c-3.71,8.77-5.76,18.39-5.77,28.55c0.01,15.23,4.62,29.29,12.53,41.01
		c3.91,5.8,8.71,11.13,14.09,15.59l-7.97,19.03c-13.67-9.92-24.63-23.51-31.3-39.28C2.42,118.84-0.2,106.53-0.2,93.67
		c0-19.3,5.89-37.32,15.96-52.21c10.06-14.9,24.3-26.72,41.06-33.81C68,2.92,80.31,0.3,93.17,0.3c19.3,0,37.32,5.89,52.21,15.96
		c14.9,10.06,26.72,24.3,33.82,41.06C183.92,68.51,186.54,80.82,186.54,93.67z"/>
</g>
</svg>
